<mxfile host="app.diagrams.net" modified="2023-10-03T13:00:25.891Z" agent="Mozilla/5.0 (Windows NT 10.0; Win64; x64) AppleWebKit/537.36 (KHTML, like Gecko) Chrome/117.0.0.0 Safari/537.36" etag="rWb07o250N1amVusDH6E" version="22.0.1" type="device">
  <diagram id="C5RBs43oDa-KdzZeNtuy" name="Page-1">
    <mxGraphModel dx="1781" dy="2391" grid="1" gridSize="10" guides="1" tooltips="1" connect="1" arrows="1" fold="1" page="1" pageScale="1" pageWidth="827" pageHeight="1169" math="0" shadow="0">
      <root>
        <mxCell id="WIyWlLk6GJQsqaUBKTNV-0" />
        <mxCell id="WIyWlLk6GJQsqaUBKTNV-1" parent="WIyWlLk6GJQsqaUBKTNV-0" />
        <mxCell id="InvjwKCrxdpQStoKiHer-80" value="" style="endArrow=classic;html=1;rounded=0;entryX=0.5;entryY=0;entryDx=0;entryDy=0;" edge="1" parent="WIyWlLk6GJQsqaUBKTNV-1" source="InvjwKCrxdpQStoKiHer-10">
          <mxGeometry width="50" height="50" relative="1" as="geometry">
            <mxPoint x="425.5" y="1200" as="sourcePoint" />
            <mxPoint x="425.5" y="1270" as="targetPoint" />
          </mxGeometry>
        </mxCell>
        <mxCell id="InvjwKCrxdpQStoKiHer-77" value="" style="endArrow=classic;html=1;rounded=0;" edge="1" parent="WIyWlLk6GJQsqaUBKTNV-1" source="InvjwKCrxdpQStoKiHer-19" target="InvjwKCrxdpQStoKiHer-76">
          <mxGeometry width="50" height="50" relative="1" as="geometry">
            <mxPoint x="425.5" y="1480" as="sourcePoint" />
            <mxPoint x="425.5" y="1500.7106781186549" as="targetPoint" />
          </mxGeometry>
        </mxCell>
        <mxCell id="InvjwKCrxdpQStoKiHer-71" value="" style="endArrow=classic;html=1;rounded=0;entryX=0.5;entryY=0;entryDx=0;entryDy=0;" edge="1" parent="WIyWlLk6GJQsqaUBKTNV-1" source="InvjwKCrxdpQStoKiHer-18" target="InvjwKCrxdpQStoKiHer-28">
          <mxGeometry width="50" height="50" relative="1" as="geometry">
            <mxPoint x="1.5" y="1380" as="sourcePoint" />
            <mxPoint x="1.5" y="1400.7106781186549" as="targetPoint" />
          </mxGeometry>
        </mxCell>
        <mxCell id="InvjwKCrxdpQStoKiHer-69" value="" style="endArrow=classic;html=1;rounded=0;" edge="1" parent="WIyWlLk6GJQsqaUBKTNV-1" source="InvjwKCrxdpQStoKiHer-17" target="InvjwKCrxdpQStoKiHer-24">
          <mxGeometry width="50" height="50" relative="1" as="geometry">
            <mxPoint x="881.5" y="1380" as="sourcePoint" />
            <mxPoint x="881.5" y="1400.7106781186549" as="targetPoint" />
          </mxGeometry>
        </mxCell>
        <mxCell id="InvjwKCrxdpQStoKiHer-14" value="" style="endArrow=classic;html=1;rounded=0;entryX=0.5;entryY=1;entryDx=0;entryDy=0;" edge="1" parent="WIyWlLk6GJQsqaUBKTNV-1" source="InvjwKCrxdpQStoKiHer-5" target="InvjwKCrxdpQStoKiHer-10">
          <mxGeometry width="50" height="50" relative="1" as="geometry">
            <mxPoint x="414" y="660" as="sourcePoint" />
            <mxPoint x="414" y="680.7106781186548" as="targetPoint" />
          </mxGeometry>
        </mxCell>
        <mxCell id="InvjwKCrxdpQStoKiHer-11" value="" style="endArrow=classic;html=1;rounded=0;entryX=0.5;entryY=0;entryDx=0;entryDy=0;" edge="1" parent="WIyWlLk6GJQsqaUBKTNV-1" source="InvjwKCrxdpQStoKiHer-0" target="InvjwKCrxdpQStoKiHer-5">
          <mxGeometry width="50" height="50" relative="1" as="geometry">
            <mxPoint x="414" y="130" as="sourcePoint" />
            <mxPoint x="414" y="150.71067811865476" as="targetPoint" />
          </mxGeometry>
        </mxCell>
        <mxCell id="InvjwKCrxdpQStoKiHer-0" value="" style="ellipse;whiteSpace=wrap;html=1;" vertex="1" parent="WIyWlLk6GJQsqaUBKTNV-1">
          <mxGeometry x="354" y="-110" width="120" height="80" as="geometry" />
        </mxCell>
        <mxCell id="InvjwKCrxdpQStoKiHer-1" value="volunteer name" style="shape=parallelogram;perimeter=parallelogramPerimeter;whiteSpace=wrap;html=1;fixedSize=1;" vertex="1" parent="WIyWlLk6GJQsqaUBKTNV-1">
          <mxGeometry x="354" y="120" width="120" height="60" as="geometry" />
        </mxCell>
        <mxCell id="InvjwKCrxdpQStoKiHer-2" value="bag weight" style="shape=parallelogram;perimeter=parallelogramPerimeter;whiteSpace=wrap;html=1;fixedSize=1;" vertex="1" parent="WIyWlLk6GJQsqaUBKTNV-1">
          <mxGeometry x="354" y="220" width="120" height="60" as="geometry" />
        </mxCell>
        <mxCell id="InvjwKCrxdpQStoKiHer-3" value="coin type" style="shape=parallelogram;perimeter=parallelogramPerimeter;whiteSpace=wrap;html=1;fixedSize=1;" vertex="1" parent="WIyWlLk6GJQsqaUBKTNV-1">
          <mxGeometry x="354" y="330" width="120" height="60" as="geometry" />
        </mxCell>
        <mxCell id="InvjwKCrxdpQStoKiHer-4" value="validate coin type&amp;nbsp;" style="rounded=0;whiteSpace=wrap;html=1;" vertex="1" parent="WIyWlLk6GJQsqaUBKTNV-1">
          <mxGeometry x="354" y="430" width="120" height="60" as="geometry" />
        </mxCell>
        <mxCell id="InvjwKCrxdpQStoKiHer-5" value="is coin type valid" style="rhombus;whiteSpace=wrap;html=1;" vertex="1" parent="WIyWlLk6GJQsqaUBKTNV-1">
          <mxGeometry x="374" y="530" width="80" height="80" as="geometry" />
        </mxCell>
        <mxCell id="InvjwKCrxdpQStoKiHer-6" value="no" style="shape=parallelogram;perimeter=parallelogramPerimeter;whiteSpace=wrap;html=1;fixedSize=1;" vertex="1" parent="WIyWlLk6GJQsqaUBKTNV-1">
          <mxGeometry x="200" y="540" width="120" height="60" as="geometry" />
        </mxCell>
        <mxCell id="InvjwKCrxdpQStoKiHer-7" value="yes" style="shape=parallelogram;perimeter=parallelogramPerimeter;whiteSpace=wrap;html=1;fixedSize=1;" vertex="1" parent="WIyWlLk6GJQsqaUBKTNV-1">
          <mxGeometry x="365.5" y="800" width="120" height="60" as="geometry" />
        </mxCell>
        <mxCell id="InvjwKCrxdpQStoKiHer-8" value="store volunteer name in table" style="rounded=0;whiteSpace=wrap;html=1;" vertex="1" parent="WIyWlLk6GJQsqaUBKTNV-1">
          <mxGeometry x="365.5" y="900" width="120" height="60" as="geometry" />
        </mxCell>
        <mxCell id="InvjwKCrxdpQStoKiHer-9" value="store coin type in table" style="rounded=0;whiteSpace=wrap;html=1;" vertex="1" parent="WIyWlLk6GJQsqaUBKTNV-1">
          <mxGeometry x="365.5" y="1000" width="120" height="60" as="geometry" />
        </mxCell>
        <mxCell id="InvjwKCrxdpQStoKiHer-10" value="store bag weight in table&amp;nbsp;" style="rounded=0;whiteSpace=wrap;html=1;" vertex="1" parent="WIyWlLk6GJQsqaUBKTNV-1">
          <mxGeometry x="365.5" y="1090" width="120" height="60" as="geometry" />
        </mxCell>
        <mxCell id="InvjwKCrxdpQStoKiHer-12" value="" style="endArrow=classic;html=1;rounded=0;entryX=1;entryY=0.5;entryDx=0;entryDy=0;" edge="1" parent="WIyWlLk6GJQsqaUBKTNV-1" source="InvjwKCrxdpQStoKiHer-5" target="InvjwKCrxdpQStoKiHer-6">
          <mxGeometry width="50" height="50" relative="1" as="geometry">
            <mxPoint x="303.28932188134524" y="620" as="sourcePoint" />
            <mxPoint x="303.28932188134524" y="570" as="targetPoint" />
          </mxGeometry>
        </mxCell>
        <mxCell id="InvjwKCrxdpQStoKiHer-13" value="" style="endArrow=classic;html=1;rounded=0;exitX=0.5;exitY=0;exitDx=0;exitDy=0;entryX=0;entryY=0.25;entryDx=0;entryDy=0;" edge="1" parent="WIyWlLk6GJQsqaUBKTNV-1" source="InvjwKCrxdpQStoKiHer-6" target="InvjwKCrxdpQStoKiHer-1">
          <mxGeometry width="50" height="50" relative="1" as="geometry">
            <mxPoint x="250" y="520" as="sourcePoint" />
            <mxPoint x="300" y="470" as="targetPoint" />
            <Array as="points">
              <mxPoint x="260" y="140" />
            </Array>
          </mxGeometry>
        </mxCell>
        <mxCell id="InvjwKCrxdpQStoKiHer-15" value="set bag total weight from coin type&amp;nbsp;" style="rounded=0;whiteSpace=wrap;html=1;" vertex="1" parent="WIyWlLk6GJQsqaUBKTNV-1">
          <mxGeometry x="365.5" y="1180" width="120" height="60" as="geometry" />
        </mxCell>
        <mxCell id="InvjwKCrxdpQStoKiHer-16" value="is total weight &amp;lt;,&amp;gt;or = to bag weight" style="rhombus;whiteSpace=wrap;html=1;" vertex="1" parent="WIyWlLk6GJQsqaUBKTNV-1">
          <mxGeometry x="385.5" y="1260" width="80" height="80" as="geometry" />
        </mxCell>
        <mxCell id="InvjwKCrxdpQStoKiHer-17" value="less than" style="shape=parallelogram;perimeter=parallelogramPerimeter;whiteSpace=wrap;html=1;fixedSize=1;" vertex="1" parent="WIyWlLk6GJQsqaUBKTNV-1">
          <mxGeometry x="821.5" y="1270" width="120" height="60" as="geometry" />
        </mxCell>
        <mxCell id="InvjwKCrxdpQStoKiHer-18" value="more than" style="shape=parallelogram;perimeter=parallelogramPerimeter;whiteSpace=wrap;html=1;fixedSize=1;" vertex="1" parent="WIyWlLk6GJQsqaUBKTNV-1">
          <mxGeometry x="-58.5" y="1270" width="120" height="60" as="geometry" />
        </mxCell>
        <mxCell id="InvjwKCrxdpQStoKiHer-19" value="equal&amp;nbsp;" style="shape=parallelogram;perimeter=parallelogramPerimeter;whiteSpace=wrap;html=1;fixedSize=1;" vertex="1" parent="WIyWlLk6GJQsqaUBKTNV-1">
          <mxGeometry x="365.5" y="1370" width="120" height="60" as="geometry" />
        </mxCell>
        <mxCell id="InvjwKCrxdpQStoKiHer-20" value="" style="endArrow=classic;html=1;rounded=0;exitX=0;exitY=0.5;exitDx=0;exitDy=0;entryX=1;entryY=0.5;entryDx=0;entryDy=0;" edge="1" parent="WIyWlLk6GJQsqaUBKTNV-1" source="InvjwKCrxdpQStoKiHer-16" target="InvjwKCrxdpQStoKiHer-18">
          <mxGeometry width="50" height="50" relative="1" as="geometry">
            <mxPoint x="341.5" y="1370" as="sourcePoint" />
            <mxPoint x="391.5" y="1320" as="targetPoint" />
          </mxGeometry>
        </mxCell>
        <mxCell id="InvjwKCrxdpQStoKiHer-21" value="" style="endArrow=classic;html=1;rounded=0;exitX=1;exitY=0.5;exitDx=0;exitDy=0;entryX=0;entryY=0.5;entryDx=0;entryDy=0;" edge="1" parent="WIyWlLk6GJQsqaUBKTNV-1" source="InvjwKCrxdpQStoKiHer-16" target="InvjwKCrxdpQStoKiHer-17">
          <mxGeometry width="50" height="50" relative="1" as="geometry">
            <mxPoint x="471.5" y="1370" as="sourcePoint" />
            <mxPoint x="521.5" y="1320" as="targetPoint" />
          </mxGeometry>
        </mxCell>
        <mxCell id="InvjwKCrxdpQStoKiHer-22" value="" style="endArrow=classic;html=1;rounded=0;exitX=0.5;exitY=1;exitDx=0;exitDy=0;entryX=0.5;entryY=0;entryDx=0;entryDy=0;" edge="1" parent="WIyWlLk6GJQsqaUBKTNV-1" source="InvjwKCrxdpQStoKiHer-16" target="InvjwKCrxdpQStoKiHer-19">
          <mxGeometry width="50" height="50" relative="1" as="geometry">
            <mxPoint x="471.5" y="1370" as="sourcePoint" />
            <mxPoint x="521.5" y="1320" as="targetPoint" />
          </mxGeometry>
        </mxCell>
        <mxCell id="InvjwKCrxdpQStoKiHer-23" value="store correct as N in user table" style="rounded=0;whiteSpace=wrap;html=1;" vertex="1" parent="WIyWlLk6GJQsqaUBKTNV-1">
          <mxGeometry x="826.5" y="1360" width="120" height="60" as="geometry" />
        </mxCell>
        <mxCell id="InvjwKCrxdpQStoKiHer-24" value="print bag is underweight please add ,addmore" style="shape=parallelogram;perimeter=parallelogramPerimeter;whiteSpace=wrap;html=1;fixedSize=1;" vertex="1" parent="WIyWlLk6GJQsqaUBKTNV-1">
          <mxGeometry x="821.5" y="1884" width="120" height="60" as="geometry" />
        </mxCell>
        <mxCell id="InvjwKCrxdpQStoKiHer-25" value="addmore = (total weight - bag weight ) / coin weight" style="rounded=0;whiteSpace=wrap;html=1;" vertex="1" parent="WIyWlLk6GJQsqaUBKTNV-1">
          <mxGeometry x="736.5" y="1710" width="290" height="130" as="geometry" />
        </mxCell>
        <mxCell id="InvjwKCrxdpQStoKiHer-26" value="store correct as N in user table" style="rounded=0;whiteSpace=wrap;html=1;" vertex="1" parent="WIyWlLk6GJQsqaUBKTNV-1">
          <mxGeometry x="-58.5" y="1360" width="120" height="60" as="geometry" />
        </mxCell>
        <mxCell id="InvjwKCrxdpQStoKiHer-27" value="remove =(bag weight - total weight) / coin weight&amp;nbsp;" style="rounded=0;whiteSpace=wrap;html=1;" vertex="1" parent="WIyWlLk6GJQsqaUBKTNV-1">
          <mxGeometry x="-118.5" y="1660" width="270" height="130" as="geometry" />
        </mxCell>
        <mxCell id="InvjwKCrxdpQStoKiHer-28" value="print bag is overweight please remove some coins" style="shape=parallelogram;perimeter=parallelogramPerimeter;whiteSpace=wrap;html=1;fixedSize=1;" vertex="1" parent="WIyWlLk6GJQsqaUBKTNV-1">
          <mxGeometry x="-73.5" y="1810" width="150" height="60" as="geometry" />
        </mxCell>
        <mxCell id="InvjwKCrxdpQStoKiHer-29" value="total&amp;nbsp; bags = total bags + 1" style="rounded=0;whiteSpace=wrap;html=1;" vertex="1" parent="WIyWlLk6GJQsqaUBKTNV-1">
          <mxGeometry x="-58.5" y="1440" width="120" height="60" as="geometry" />
        </mxCell>
        <mxCell id="InvjwKCrxdpQStoKiHer-30" value="volunteer bags = volunteer bags + 1" style="rounded=0;whiteSpace=wrap;html=1;" vertex="1" parent="WIyWlLk6GJQsqaUBKTNV-1">
          <mxGeometry x="-58.5" y="1510" width="120" height="60" as="geometry" />
        </mxCell>
        <mxCell id="InvjwKCrxdpQStoKiHer-31" value="total value = total value&amp;nbsp; bag value" style="rounded=0;whiteSpace=wrap;html=1;" vertex="1" parent="WIyWlLk6GJQsqaUBKTNV-1">
          <mxGeometry x="-58.5" y="1580" width="120" height="60" as="geometry" />
        </mxCell>
        <mxCell id="InvjwKCrxdpQStoKiHer-66" value="total&amp;nbsp; bags = total bags + 1" style="rounded=0;whiteSpace=wrap;html=1;" vertex="1" parent="WIyWlLk6GJQsqaUBKTNV-1">
          <mxGeometry x="826.5" y="1480" width="120" height="60" as="geometry" />
        </mxCell>
        <mxCell id="InvjwKCrxdpQStoKiHer-67" value="volunteer bags = volunteer bags + 1" style="rounded=0;whiteSpace=wrap;html=1;" vertex="1" parent="WIyWlLk6GJQsqaUBKTNV-1">
          <mxGeometry x="826.5" y="1550" width="120" height="60" as="geometry" />
        </mxCell>
        <mxCell id="InvjwKCrxdpQStoKiHer-70" value="" style="edgeStyle=orthogonalEdgeStyle;rounded=0;orthogonalLoop=1;jettySize=auto;html=1;" edge="1" parent="WIyWlLk6GJQsqaUBKTNV-1" source="InvjwKCrxdpQStoKiHer-68">
          <mxGeometry relative="1" as="geometry">
            <mxPoint x="886.5" y="1720" as="targetPoint" />
          </mxGeometry>
        </mxCell>
        <mxCell id="InvjwKCrxdpQStoKiHer-68" value="total value = total value + bag value" style="rounded=0;whiteSpace=wrap;html=1;" vertex="1" parent="WIyWlLk6GJQsqaUBKTNV-1">
          <mxGeometry x="826.5" y="1620" width="120" height="60" as="geometry" />
        </mxCell>
        <mxCell id="InvjwKCrxdpQStoKiHer-72" value="store correct as Y in user table" style="rounded=0;whiteSpace=wrap;html=1;" vertex="1" parent="WIyWlLk6GJQsqaUBKTNV-1">
          <mxGeometry x="365.5" y="1470" width="120" height="60" as="geometry" />
        </mxCell>
        <mxCell id="InvjwKCrxdpQStoKiHer-73" value="total&amp;nbsp; bags = total bags + 1" style="rounded=0;whiteSpace=wrap;html=1;" vertex="1" parent="WIyWlLk6GJQsqaUBKTNV-1">
          <mxGeometry x="365.5" y="1540" width="120" height="60" as="geometry" />
        </mxCell>
        <mxCell id="InvjwKCrxdpQStoKiHer-74" value="volunteer bags = volunteer bags + 1" style="rounded=0;whiteSpace=wrap;html=1;" vertex="1" parent="WIyWlLk6GJQsqaUBKTNV-1">
          <mxGeometry x="365.5" y="1610" width="120" height="60" as="geometry" />
        </mxCell>
        <mxCell id="InvjwKCrxdpQStoKiHer-75" value="total value = total value + (total weight * coin type)" style="rounded=0;whiteSpace=wrap;html=1;" vertex="1" parent="WIyWlLk6GJQsqaUBKTNV-1">
          <mxGeometry x="365.5" y="1680" width="120" height="60" as="geometry" />
        </mxCell>
        <mxCell id="InvjwKCrxdpQStoKiHer-76" value="store volunteer bags in table" style="rounded=0;whiteSpace=wrap;html=1;" vertex="1" parent="WIyWlLk6GJQsqaUBKTNV-1">
          <mxGeometry x="365.5" y="2040" width="120" height="60" as="geometry" />
        </mxCell>
        <mxCell id="InvjwKCrxdpQStoKiHer-78" value="" style="endArrow=classic;html=1;rounded=0;exitX=0.5;exitY=1;exitDx=0;exitDy=0;entryX=0;entryY=0.5;entryDx=0;entryDy=0;" edge="1" parent="WIyWlLk6GJQsqaUBKTNV-1" source="InvjwKCrxdpQStoKiHer-28" target="InvjwKCrxdpQStoKiHer-76">
          <mxGeometry width="50" height="50" relative="1" as="geometry">
            <mxPoint x="-18.5" y="1980" as="sourcePoint" />
            <mxPoint x="31.5" y="1930" as="targetPoint" />
            <Array as="points">
              <mxPoint x="1.5" y="1910" />
            </Array>
          </mxGeometry>
        </mxCell>
        <mxCell id="InvjwKCrxdpQStoKiHer-79" value="" style="endArrow=classic;html=1;rounded=0;exitX=0;exitY=0.5;exitDx=0;exitDy=0;entryX=1;entryY=0.5;entryDx=0;entryDy=0;" edge="1" parent="WIyWlLk6GJQsqaUBKTNV-1" source="InvjwKCrxdpQStoKiHer-24" target="InvjwKCrxdpQStoKiHer-76">
          <mxGeometry width="50" height="50" relative="1" as="geometry">
            <mxPoint x="671.5" y="1970" as="sourcePoint" />
            <mxPoint x="721.5" y="1920" as="targetPoint" />
          </mxGeometry>
        </mxCell>
        <mxCell id="InvjwKCrxdpQStoKiHer-81" value="add another bag?" style="rhombus;whiteSpace=wrap;html=1;" vertex="1" parent="WIyWlLk6GJQsqaUBKTNV-1">
          <mxGeometry x="385.5" y="2200" width="80" height="80" as="geometry" />
        </mxCell>
        <mxCell id="InvjwKCrxdpQStoKiHer-82" value="" style="endArrow=classic;html=1;rounded=0;exitX=0;exitY=0.5;exitDx=0;exitDy=0;entryX=0;entryY=0.25;entryDx=0;entryDy=0;" edge="1" parent="WIyWlLk6GJQsqaUBKTNV-1" source="InvjwKCrxdpQStoKiHer-81" target="InvjwKCrxdpQStoKiHer-1">
          <mxGeometry width="50" height="50" relative="1" as="geometry">
            <mxPoint x="340" y="2100" as="sourcePoint" />
            <mxPoint x="390" y="2050" as="targetPoint" />
            <Array as="points">
              <mxPoint x="-450" y="2110" />
              <mxPoint x="-430" y="130" />
            </Array>
          </mxGeometry>
        </mxCell>
        <mxCell id="InvjwKCrxdpQStoKiHer-83" value="start new row" style="rounded=0;whiteSpace=wrap;html=1;" vertex="1" parent="WIyWlLk6GJQsqaUBKTNV-1">
          <mxGeometry x="354" y="650" width="120" height="60" as="geometry" />
        </mxCell>
        <mxCell id="InvjwKCrxdpQStoKiHer-84" value="yes" style="shape=parallelogram;perimeter=parallelogramPerimeter;whiteSpace=wrap;html=1;fixedSize=1;" vertex="1" parent="WIyWlLk6GJQsqaUBKTNV-1">
          <mxGeometry x="200" y="2200" width="120" height="60" as="geometry" />
        </mxCell>
        <mxCell id="InvjwKCrxdpQStoKiHer-85" value="no" style="shape=parallelogram;perimeter=parallelogramPerimeter;whiteSpace=wrap;html=1;fixedSize=1;" vertex="1" parent="WIyWlLk6GJQsqaUBKTNV-1">
          <mxGeometry x="365.5" y="2360" width="120" height="60" as="geometry" />
        </mxCell>
        <mxCell id="InvjwKCrxdpQStoKiHer-86" value="" style="endArrow=classic;html=1;rounded=0;entryX=0.5;entryY=0;entryDx=0;entryDy=0;exitX=0.5;exitY=1;exitDx=0;exitDy=0;" edge="1" parent="WIyWlLk6GJQsqaUBKTNV-1" source="InvjwKCrxdpQStoKiHer-76" target="InvjwKCrxdpQStoKiHer-81">
          <mxGeometry width="50" height="50" relative="1" as="geometry">
            <mxPoint x="420" y="2100" as="sourcePoint" />
            <mxPoint x="470" y="2050" as="targetPoint" />
          </mxGeometry>
        </mxCell>
        <mxCell id="InvjwKCrxdpQStoKiHer-87" value="" style="endArrow=classic;html=1;rounded=0;exitX=0.5;exitY=1;exitDx=0;exitDy=0;entryX=0.5;entryY=0;entryDx=0;entryDy=0;" edge="1" parent="WIyWlLk6GJQsqaUBKTNV-1" source="InvjwKCrxdpQStoKiHer-81" target="InvjwKCrxdpQStoKiHer-85">
          <mxGeometry width="50" height="50" relative="1" as="geometry">
            <mxPoint x="420" y="2290" as="sourcePoint" />
            <mxPoint x="470" y="2240" as="targetPoint" />
          </mxGeometry>
        </mxCell>
        <mxCell id="InvjwKCrxdpQStoKiHer-88" value="load table" style="rounded=0;whiteSpace=wrap;html=1;" vertex="1" parent="WIyWlLk6GJQsqaUBKTNV-1">
          <mxGeometry x="354" width="120" height="60" as="geometry" />
        </mxCell>
        <mxCell id="InvjwKCrxdpQStoKiHer-89" value="save changes to table" style="rounded=0;whiteSpace=wrap;html=1;" vertex="1" parent="WIyWlLk6GJQsqaUBKTNV-1">
          <mxGeometry x="365.5" y="2480" width="120" height="60" as="geometry" />
        </mxCell>
        <mxCell id="InvjwKCrxdpQStoKiHer-90" value="" style="endArrow=classic;html=1;rounded=0;exitX=0.5;exitY=1;exitDx=0;exitDy=0;entryX=0.5;entryY=0;entryDx=0;entryDy=0;" edge="1" parent="WIyWlLk6GJQsqaUBKTNV-1" source="InvjwKCrxdpQStoKiHer-85" target="InvjwKCrxdpQStoKiHer-89">
          <mxGeometry width="50" height="50" relative="1" as="geometry">
            <mxPoint x="530" y="2450" as="sourcePoint" />
            <mxPoint x="580" y="2400" as="targetPoint" />
          </mxGeometry>
        </mxCell>
        <mxCell id="InvjwKCrxdpQStoKiHer-91" value="display list of volunteers sorted by accuracy" style="rounded=0;whiteSpace=wrap;html=1;" vertex="1" parent="WIyWlLk6GJQsqaUBKTNV-1">
          <mxGeometry x="366" y="2600" width="120" height="60" as="geometry" />
        </mxCell>
        <mxCell id="InvjwKCrxdpQStoKiHer-92" value="" style="endArrow=classic;html=1;rounded=0;exitX=0.5;exitY=1;exitDx=0;exitDy=0;entryX=0.5;entryY=0;entryDx=0;entryDy=0;" edge="1" parent="WIyWlLk6GJQsqaUBKTNV-1" source="InvjwKCrxdpQStoKiHer-89" target="InvjwKCrxdpQStoKiHer-91">
          <mxGeometry width="50" height="50" relative="1" as="geometry">
            <mxPoint x="260" y="2560" as="sourcePoint" />
            <mxPoint x="310" y="2510" as="targetPoint" />
          </mxGeometry>
        </mxCell>
      </root>
    </mxGraphModel>
  </diagram>
</mxfile>
